<svg xmlns="http://www.w3.org/2000/svg" viewBox="0 0 1554.61 252.87"><defs><style>.cls-1{fill:#f0504f;}.cls-2{fill:#092a33;}</style></defs><title>Veracontent_logo</title><g id="Capa_2" data-name="Capa 2"><g id="Layer_1" data-name="Layer 1"><path class="cls-1" d="M143.47,191.57c-13.21-21.78-12.7-43.95-12.22-65.4.06-2.67.13-5.44.16-8.17a131.39,131.39,0,0,0-9.59-52.15A106.94,106.94,0,0,0,93.29,25.6,101.89,101.89,0,0,0,52.69,4C36.56-.36,19-1.17.37,1.62L0,1.68V8.13l.4,0c48.36,4.45,54.34,59.8,56.31,78,3.9,36.07,11.46,60.1,24.53,77.9,12.07,16.43,28.74,28.11,57.56,40.31l.45.19.14-.47c.65-2.26,1.88-5.74,2.87-8.53.52-1.5,1-2.79,1.25-3.63l.07-.19Z"/><path class="cls-2" d="M118.14,248.92l-16.35-46.43,4.74-3.63L143,214.11,185.82,86.76a30.37,30.37,0,0,0,2.07-10.49q-.13-4.15-6.49-5.8l-7.18-1.94V65.77h44.43v2.76l-7.46,2.21q-5.25,1.4-7.46,4.84a42.62,42.62,0,0,0-4.14,9L144.34,248.92Z"/><path class="cls-2" d="M268.46,111.22q17.93,0,30.59,7.3a49.84,49.84,0,0,1,19.43,19.85,59.2,59.2,0,0,1,6.75,28.52q0,3-.27,6.2a25.16,25.16,0,0,1-1.1,5.65H241.73q.27,29.76,10.61,42.85t30.73,13.09q13.77,0,22.32-4.41a54.29,54.29,0,0,0,16-13l2.75,2.48a63.26,63.26,0,0,1-22.73,23.7q-14.2,8.53-34,8.54-19.58,0-34.72-8.4a59.25,59.25,0,0,1-23.7-24.11q-8.55-15.72-8.54-37.49,0-22.59,9.92-38.44a66.71,66.71,0,0,1,25.49-24.11A68.7,68.7,0,0,1,268.46,111.22Zm-.82,5.51A20.31,20.31,0,0,0,254,121.55q-5.66,4.83-8.82,17.09t-3.45,34.59h47.13q2.75-30-2.21-43.27T267.64,116.73Z"/><path class="cls-2" d="M339,247.91v-2.76l4.14-1.1q5.5-1.65,7.57-5a15.86,15.86,0,0,0,2.07-8.54V144.29q0-6.06-2.07-9c-1.37-1.93-3.9-3.26-7.57-4l-4.14-1.1v-2.76l47.4-16,2.76,2.75,2.48,23.7v2.21A57.84,57.84,0,0,1,401.71,126a56.48,56.48,0,0,1,13.78-10.61,31.2,31.2,0,0,1,15-4.13q10.46,0,16,5.79a20.35,20.35,0,0,1,5.51,14.6q0,9.38-5.37,14.47a18,18,0,0,1-12.82,5.1q-11.56,0-20.39-11.57l-.55-.56c-1.84-2.57-4-4-6.34-4.27s-4.6.88-6.61,3.45a20.69,20.69,0,0,0-4.55,5.92,72.21,72.21,0,0,0-3.45,7.86v76.88q0,11,9.65,13.78l8.82,2.48v2.76Z"/><path class="cls-2" d="M495,252q-16,0-26.87-9.09t-10.88-26.18q0-12.95,13.23-23.84t41.61-16.4c2.93-.55,6.24-1.14,9.92-1.79s7.53-1.33,11.57-2.06V150.9q0-18.74-4.54-26.31T514.83,117c-4.4,0-7.9,1.42-10.47,4.27s-4.23,7.76-5,14.74l-.55,3q-.56,11.87-5.79,17.37a17.16,17.16,0,0,1-12.95,5.51,16.59,16.59,0,0,1-11.85-4.41c-3.13-2.94-4.68-6.89-4.68-11.85a25.61,25.61,0,0,1,7.85-19q7.86-7.71,20.81-11.57a98.11,98.11,0,0,1,28.11-3.86q24.52,0,37.89,12t13.36,39v60.91q0,12.4,11.58,12.4h6.06l2.48,2.2a40.76,40.76,0,0,1-11.43,10.2q-6.21,3.59-17.5,3.58-12.13,0-19.16-5.65a26.4,26.4,0,0,1-9.23-15,113.92,113.92,0,0,1-16.95,15Q508.77,252.05,495,252Zm16.81-16.81a21.4,21.4,0,0,0,10.34-2.61,74.69,74.69,0,0,0,11.43-8.13v-46.3l-5.51,1.1q-2.76.56-6.34,1.1-12.68,3.31-20.25,11.16t-7.58,21.09q0,11.3,5.24,16.94A16.61,16.61,0,0,0,511.8,235.23Z"/><path class="cls-2" d="M688.45,252.87q-26.73,0-48.36-10.88a81.93,81.93,0,0,1-34.31-32.39Q593.09,188.11,593.1,157q0-23.7,7.72-41.62a85.57,85.57,0,0,1,21.08-30,88.51,88.51,0,0,1,30.86-18.18,112.49,112.49,0,0,1,37.07-6.07,110.44,110.44,0,0,1,28.94,3.59,112.92,112.92,0,0,1,24.8,9.92l1.1,33.89h-2.76l-13.77-22a64.75,64.75,0,0,0-6.07-9.51,21.24,21.24,0,0,0-8.26-6.48,38.11,38.11,0,0,0-18.19-3.85,52.13,52.13,0,0,0-29.08,8.54q-13.1,8.55-20.94,28.25t-7.86,53.87q0,33.9,7.44,53.6T665.44,239a51.3,51.3,0,0,0,28.8,8.41,63.19,63.19,0,0,0,14-1.24,53.7,53.7,0,0,0,10.48-3.72,17.14,17.14,0,0,0,8-6.48,67.91,67.91,0,0,0,5-9.23l12.12-27h2.76l-.83,39.41a126.5,126.5,0,0,1-25.9,9.92A120.79,120.79,0,0,1,688.45,252.87Z"/><path class="cls-2" d="M829,252q-21,0-36.38-8.68a59.31,59.31,0,0,1-23.84-24.66q-8.4-16-8.4-37.48t9-37.21a62.3,62.3,0,0,1,24.53-24.25q15.57-8.54,35.14-8.54t35,8.41a61.66,61.66,0,0,1,24.39,24.11q8.94,15.7,9,37.48t-8.4,37.62a59.84,59.84,0,0,1-23.7,24.52Q849.94,252,829,252Zm0-5.51q9.64,0,15.43-5.51t8.41-19.57q2.61-14.05,2.61-39.68,0-25.9-2.61-40t-8.41-19.57q-5.79-5.51-15.43-5.51t-15.57,5.51q-5.94,5.52-8.55,19.57t-2.61,40q0,25.64,2.61,39.68T813.43,241Q819.36,246.54,829,246.53Z"/><path class="cls-2" d="M909.47,247.91v-2.76l3.86-1.1q9.64-2.75,9.64-13.5V144.29q0-6.06-1.93-9t-7.44-4l-4.13-1.1v-2.76l47.12-16,2.76,2.75,2.2,16.54a86.73,86.73,0,0,1,21.78-14.06,57.63,57.63,0,0,1,24-5.51q18.19,0,28,9.92t9.79,30.32v79.36q0,10.76,10.47,13.51l2.48.82v2.76H993v-2.76l3.58-1.1q9.65-3,9.65-13.5V142.64q0-17.64-17.64-17.64-12.12,0-26.45,12.12v93.7q0,10.76,9.64,13.51l2.48.82v2.76Z"/><path class="cls-2" d="M1119.74,252q-17.64,0-27.42-8.81t-9.78-28.11V120.87h-19v-2.76l6.61-1.1a52.58,52.58,0,0,0,14.75-5.51,60.14,60.14,0,0,0,12.26-9.65l22.6-25.08h2.76l-.83,38.58h30.86v5.52h-31.14v99.21q0,9.64,4.27,14.6a13.73,13.73,0,0,0,10.89,5,18.16,18.16,0,0,0,10.2-2.89,45.45,45.45,0,0,0,8.81-7.86l2.76,2.76a40.63,40.63,0,0,1-15.16,14.88Q1133.51,252.05,1119.74,252Z"/><path class="cls-2" d="M1235.21,111.22q17.91,0,30.59,7.3a49.91,49.91,0,0,1,19.43,19.85,59.2,59.2,0,0,1,6.75,28.52q0,3-.28,6.2a24.61,24.61,0,0,1-1.1,5.65h-82.12q.27,29.76,10.61,42.85t30.73,13.09q13.77,0,22.32-4.41a54.39,54.39,0,0,0,16-13l2.76,2.48a63.36,63.36,0,0,1-22.74,23.7q-14.19,8.53-34,8.54-19.58,0-34.73-8.4a59.38,59.38,0,0,1-23.7-24.11q-8.54-15.72-8.54-37.49,0-22.59,9.92-38.44a66.78,66.78,0,0,1,25.49-24.11A68.74,68.74,0,0,1,1235.21,111.22Zm-.83,5.51a20.31,20.31,0,0,0-13.64,4.82q-5.65,4.83-8.82,17.09t-3.44,34.59h47.12q2.76-30-2.2-43.27T1234.38,116.73Z"/><path class="cls-2" d="M1305.76,247.91v-2.76l3.85-1.1q9.65-2.75,9.65-13.5V144.29c0-4-.65-7-1.93-9s-3.77-3.26-7.44-4l-4.13-1.1v-2.76l47.12-16,2.76,2.75,2.2,16.54a86.85,86.85,0,0,1,21.77-14.06,57.67,57.67,0,0,1,24-5.51q18.18,0,28,9.92t9.78,30.32v79.36q0,10.76,10.48,13.51l2.48.82v2.76h-65v-2.76l3.58-1.1q9.65-3,9.65-13.5V142.64q0-17.64-17.64-17.64-12.13,0-26.46,12.12v93.7q0,10.76,9.65,13.51l2.48.82v2.76Z"/><path class="cls-2" d="M1516,252q-17.64,0-27.42-8.81t-9.79-28.11V120.87h-19v-2.76l6.61-1.1a52.7,52.7,0,0,0,14.75-5.51,60.14,60.14,0,0,0,12.26-9.65L1516,76.77h2.75l-.82,38.58h30.86v5.52h-31.14v99.21q0,9.64,4.27,14.6a13.73,13.73,0,0,0,10.89,5,18.13,18.13,0,0,0,10.19-2.89,45.2,45.2,0,0,0,8.82-7.86l2.76,2.76a40.63,40.63,0,0,1-15.16,14.88Q1529.8,252.05,1516,252Z"/></g></g></svg>